<svg width="100" height="100" viewBox="0 0 100 100" fill="none" xmlns="http://www.w3.org/2000/svg">
<g filter="url(#filter0_d_506_18)">
<rect x="4" width="92" height="92" rx="46" fill="white"/>
<g filter="url(#filter1_d_506_18)">
<path d="M31.5316 51.1144H68.6555C70.1192 51.1144 71.3072 52.1066 71.3072 53.3292V63.2955C71.3072 64.5191 70.1192 65.5102 68.6555 65.5102H31.5316C30.0679 65.5102 28.8799 64.5191 28.8799 63.2955V53.3292C28.8799 52.1067 30.0679 51.1144 31.5316 51.1144Z" fill="#0D7A7C"/>
<path d="M50.094 24.8544C51.4671 24.8544 52.6214 25.7361 53.0569 26.9588H55.3549C55.3549 24.6345 53.0001 22.75 50.094 22.75C47.1889 22.75 44.833 24.6345 44.833 26.9588H47.131C47.5666 25.7361 48.7219 24.8544 50.094 24.8544Z" fill="#332A23"/>
<path d="M40.4314 26.9589H59.7559C64.3275 26.9589 68.0378 31.0251 68.0378 36.0387V66.3048C68.0378 67.977 66.8011 69.3314 65.2772 69.3314H34.9101C33.3862 69.3314 32.1494 67.977 32.1494 66.3048V36.0386C32.1494 31.0251 35.8569 26.9589 40.4314 26.9589V26.9589Z" fill="#065654"/>
<path d="M36.2904 26.9589H63.8968C66.9459 26.9589 69.4181 29.9486 69.4181 33.6363V40.3137C69.4181 44.0014 66.9459 46.9929 63.8968 46.9929H36.2904C33.2412 46.9929 30.769 44.0014 30.769 40.3137V33.6363C30.7691 29.9486 33.2412 26.9589 36.2904 26.9589V26.9589Z" fill="#0D7A7C"/>
<path d="M39.0513 55.9457C39.0513 55.9457 40.1155 58.7064 41.1646 58.7064C42.1847 58.7064 43.1923 55.9457 43.1923 55.9457V26.9589H39.0514V55.9457H39.0513ZM56.9955 26.9589V55.9457C56.9955 55.9457 58.0597 58.7064 59.1088 58.7064C60.1289 58.7064 61.1365 55.9457 61.1365 55.9457V26.9589H56.9955Z" fill="#F2A74E"/>
<path d="M39.7414 53.185H42.502C43.6455 53.185 44.5725 52.258 44.5725 51.1145C44.5725 49.971 43.6455 49.044 42.502 49.044H39.7414C38.5979 49.044 37.6709 49.971 37.6709 51.1145C37.6709 52.258 38.5979 53.185 39.7414 53.185ZM55.6151 51.1144C55.6151 52.2579 56.5421 53.1849 57.6856 53.1849H60.4462C61.5897 53.1849 62.5167 52.2579 62.5167 51.1144C62.5167 49.9709 61.5897 49.0439 60.4462 49.0439H57.6856C56.5421 49.0439 55.6151 49.9709 55.6151 51.1144Z" fill="#332A23"/>
<path d="M53.4531 35.8565L51.2135 33.618C50.595 32.9994 49.5934 32.9994 48.975 33.618L46.7344 35.8565C46.1159 36.4751 46.1159 37.4776 46.7344 38.0961L48.975 40.3338C49.5935 40.9523 50.594 40.9523 51.2135 40.3338L53.4531 38.0961C54.0716 37.4775 54.0716 36.475 53.4531 35.8565ZM49.1568 37.4747C49.1568 37.6016 49.1063 37.7234 49.0165 37.8132C48.9268 37.9029 48.805 37.9534 48.6781 37.9534C48.5511 37.9532 48.4295 37.9027 48.3397 37.813C48.25 37.7232 48.1995 37.6016 48.1993 37.4747V36.5172C48.1995 36.3903 48.25 36.2686 48.3397 36.1789C48.4295 36.0891 48.5511 36.0386 48.6781 36.0384C48.805 36.0385 48.9268 36.0889 49.0165 36.1787C49.1063 36.2685 49.1568 36.3902 49.1568 36.5172V37.4747ZM52.0293 37.4747C52.0293 37.6016 51.9788 37.7234 51.889 37.8132C51.7993 37.9029 51.6775 37.9534 51.5505 37.9534C51.4236 37.9532 51.302 37.9027 51.2122 37.813C51.1225 37.7232 51.072 37.6016 51.0718 37.4747V36.5172C51.072 36.3903 51.1225 36.2686 51.2122 36.1789C51.302 36.0891 51.4236 36.0386 51.5505 36.0384C51.6775 36.0385 51.7993 36.0889 51.889 36.1787C51.9788 36.2685 52.0293 36.3902 52.0293 36.5172V37.4747Z" fill="#D7F4F7"/>
</g>
</g>
<defs>
<filter id="filter0_d_506_18" x="0" y="0" width="100" height="100" filterUnits="userSpaceOnUse" color-interpolation-filters="sRGB">
<feFlood flood-opacity="0" result="BackgroundImageFix"/>
<feColorMatrix in="SourceAlpha" type="matrix" values="0 0 0 0 0 0 0 0 0 0 0 0 0 0 0 0 0 0 127 0" result="hardAlpha"/>
<feOffset dy="4"/>
<feGaussianBlur stdDeviation="2"/>
<feComposite in2="hardAlpha" operator="out"/>
<feColorMatrix type="matrix" values="0 0 0 0 0 0 0 0 0 0 0 0 0 0 0 0 0 0 0.25 0"/>
<feBlend mode="normal" in2="BackgroundImageFix" result="effect1_dropShadow_506_18"/>
<feBlend mode="normal" in="SourceGraphic" in2="effect1_dropShadow_506_18" result="shape"/>
</filter>
<filter id="filter1_d_506_18" x="22" y="22" width="56" height="56" filterUnits="userSpaceOnUse" color-interpolation-filters="sRGB">
<feFlood flood-opacity="0" result="BackgroundImageFix"/>
<feColorMatrix in="SourceAlpha" type="matrix" values="0 0 0 0 0 0 0 0 0 0 0 0 0 0 0 0 0 0 127 0" result="hardAlpha"/>
<feOffset dy="4"/>
<feGaussianBlur stdDeviation="2"/>
<feComposite in2="hardAlpha" operator="out"/>
<feColorMatrix type="matrix" values="0 0 0 0 0 0 0 0 0 0 0 0 0 0 0 0 0 0 0.25 0"/>
<feBlend mode="normal" in2="BackgroundImageFix" result="effect1_dropShadow_506_18"/>
<feBlend mode="normal" in="SourceGraphic" in2="effect1_dropShadow_506_18" result="shape"/>
</filter>
</defs>
</svg>
